<?xml version="1.0" encoding="UTF-8"?>
<svg width="30px" height="30px" viewBox="0 0 30 30" version="1.1" xmlns="http://www.w3.org/2000/svg" xmlns:xlink="http://www.w3.org/1999/xlink">
    <!-- Generator: Sketch 46.2 (44496) - http://www.bohemiancoding.com/sketch -->
    <title>Group 5</title>
    <desc>Created with Sketch.</desc>
    <defs></defs>
    <g id="Page-1" stroke="none" stroke-width="1" fill="none" fill-rule="evenodd">
        <g id="Artboard" transform="translate(-136.000000, -32.000000)">
            <g id="Group-5" transform="translate(136.000000, 32.000000)">
                <circle id="Oval-2" fill="#FFD186" cx="15" cy="15" r="15"></circle>
                <g id="noun_1028754_cc" transform="translate(8.000000, 11.000000)" fill-rule="nonzero" fill="#162027">
                    <g id="Group">
                        <path d="M0.976744185,0.0614988679 C0.835816278,0.0614988679 0.700732557,0.0908422642 0.57994186,0.146404528 L6.68459302,5.57507547 C6.83452325,5.7083434 7.16547674,5.7083434 7.31540698,5.57507547 L13.4200581,0.146404528 C13.2992674,0.0908422642 13.1641837,0.0614988679 13.0232558,0.0614988679 L0.976744185,0.0614988679 Z M0.106823222,0.618683774 C0.0396557805,0.75708 -3.3488372e-08,0.914070566 -3.3488372e-08,1.08036679 L-3.3488372e-08,7.87282642 C-3.3488372e-08,8.43727925 0.435627873,8.89169434 0.976744185,8.89169434 L13.0232558,8.89169434 C13.5643721,8.89169434 14,8.43727925 14,7.87282642 L14,1.08036679 C14,0.914070566 13.9603442,0.757078302 13.8931767,0.618683774 L7.73763721,6.08980755 C7.31534186,6.46517547 6.68465814,6.46517547 6.26236279,6.08980755 L0.106823222,0.618683774 Z" id="Shape"></path>
                    </g>
                </g>
            </g>
        </g>
    </g>
</svg>