<svg xmlns="http://www.w3.org/2000/svg" viewBox="0 0 30 30"><g fill="none" fill-rule="evenodd"><circle fill="#FFD186" cx="15" cy="15" r="15"/><path d="M22 15.97V21h-3v-4.693c0-1.179-.435-1.983-1.52-1.983-.83 0-1.323.542-1.54 1.066-.08.188-.1.449-.1.711V21h-3.002s.04-7.948 0-8.772h3.002v1.244l-.02.028h.02v-.028c.399-.597 1.11-1.45 2.705-1.45 1.975 0 3.455 1.254 3.455 3.948zM9.699 8C8.672 8 8 8.655 8 9.515c0 .842.652 1.517 1.659 1.517h.02c1.046 0 1.697-.675 1.697-1.517C11.356 8.655 10.726 8 9.7 8zm-1.52 13h3v-8.772h-3V21z" fill-rule="nonzero" fill="#162027"/></g></svg>