<?xml version="1.0" encoding="UTF-8"?>
<svg width="30px" height="30px" viewBox="0 0 30 30" version="1.1" xmlns="http://www.w3.org/2000/svg" xmlns:xlink="http://www.w3.org/1999/xlink">
    <!-- Generator: Sketch 46.2 (44496) - http://www.bohemiancoding.com/sketch -->
    <title>Group 2</title>
    <desc>Created with Sketch.</desc>
    <defs></defs>
    <g id="Page-1" stroke="none" stroke-width="1" fill="none" fill-rule="evenodd">
        <g id="Artboard" transform="translate(-6.000000, -32.000000)">
            <g id="Group-2" transform="translate(6.000000, 32.000000)">
                <circle id="Oval-2" fill="#FFD186" cx="15" cy="15" r="15"></circle>
                <g id="logo" transform="translate(8.000000, 8.000000)" fill-rule="nonzero" fill="#162027">
                    <path d="M14,7.97028968 L14,13 L10.9993467,13 L10.9993467,8.30714936 C10.9993467,7.12826702 10.5653345,6.32372592 9.47919752,6.32372592 C8.65006963,6.32372592 8.15665505,6.86592766 7.93958388,7.39041659 C7.86042402,7.57791933 7.84004817,7.83889859 7.84004817,8.10136447 L7.84004817,13 L4.83838583,13 C4.83838583,13 4.87881204,5.05185133 4.83838583,4.22836385 L7.83975523,4.22836385 L7.83975523,5.47170817 C7.83366851,5.48100739 7.82575904,5.49103411 7.82003036,5.50004866 L7.83975523,5.50004866 L7.83975523,5.47170817 C8.2385165,4.87488139 8.95066226,4.0222943 10.5446658,4.0222943 C12.5195284,4.02226267 14,5.27598163 14,7.97028968 Z M1.69851924,0 C0.671654457,0 0,0.654519929 0,1.51523594 C0,2.35719534 0.652222535,3.03157892 1.65867892,3.03157892 L1.67872928,3.03157892 C2.72548167,3.03157892 3.37646733,2.35732186 3.37646733,1.51523594 C3.35674247,0.654519929 2.72548167,0 1.69851924,0 Z M0.178272424,13 L3.17879554,13 L3.17879554,4.22836385 L0.178272424,4.22836385 L0.178272424,13 Z" id="LinkedIn"></path>
                </g>
            </g>
        </g>
    </g>
</svg>