<svg xmlns="http://www.w3.org/2000/svg" viewBox="0 0 30 30"><g fill="none" fill-rule="evenodd"><circle fill="#FFD186" cx="15" cy="15" r="15"/><path d="M13.72 20.528c-2.375 0-4.315-1.14-4.347-1.159a.458.458 0 01.297-.844c1.287.172 2.183-.233 2.663-.554-1.19-.9-3.852-3.443-2.219-7.212a.458.458 0 01.806-.063c.049.076 1.194 1.799 4.057 2.16a2.843 2.843 0 012.84-2.828c.696 0 1.353.25 1.872.709.752-.08 1.343-.097 1.37-.099.063.001.122.01.175.03a.457.457 0 01.588.589c-.087.232-.508 1.291-1.08 1.833.142 1.318-.185 3.255-2.3 5.431-1.493 1.538-3.197 2.007-4.722 2.007z" fill-rule="nonzero" fill="#162027"/></g></svg>