<?xml version="1.0" encoding="UTF-8"?>
<svg width="30px" height="30px" viewBox="0 0 30 30" version="1.1" xmlns="http://www.w3.org/2000/svg" xmlns:xlink="http://www.w3.org/1999/xlink">
    <!-- Generator: Sketch 46.2 (44496) - http://www.bohemiancoding.com/sketch -->
    <title>Group 4</title>
    <desc>Created with Sketch.</desc>
    <defs></defs>
    <g id="Page-1" stroke="none" stroke-width="1" fill="none" fill-rule="evenodd">
        <g id="Artboard" transform="translate(-86.000000, -32.000000)">
            <g id="Group-4" transform="translate(86.000000, 32.000000)">
                <circle id="Oval-2" fill="#FFD186" cx="15" cy="15" r="15"></circle>
                <g id="noun_16224_cc" transform="translate(9.000000, 10.000000)" fill-rule="nonzero" fill="#162027">
                    <path d="M4.7202722,10.5280313 C2.34517705,10.5280313 0.405113018,9.38814846 0.373415281,9.36905902 C0.187699055,9.25716246 0.106219617,9.03052622 0.177539524,8.82582252 C0.249469003,8.62172806 0.452659622,8.49256978 0.670479966,8.52485935 C1.95687978,8.69686732 2.85274722,8.29172458 3.33268346,7.9714689 C2.14320557,7.07061016 -0.519404299,4.52846642 1.11404509,0.759318965 C1.18130118,0.60396348 1.32963033,0.498159287 1.49807536,0.484959147 C1.66306614,0.47358672 1.82968245,0.553396792 1.92010227,0.696161375 C1.96886802,0.772316025 3.11425354,2.49462958 5.97700617,2.855298 C5.98350827,1.29524462 7.25507517,0.02803125 8.81659508,0.02803125 C9.51313252,0.02803125 10.1696414,0.277818501 10.689403,0.736574109 C11.4405987,0.656764037 12.0322898,0.639502316 12.0597205,0.638486921 C12.1216937,0.639096158 12.180619,0.6474224 12.2340581,0.667730306 C12.3346375,0.630769916 12.4478146,0.627926809 12.5567248,0.668339543 C12.7924259,0.757491253 12.9114956,1.02108788 12.8222949,1.2566596 C12.7347198,1.48877897 12.313912,2.54824245 11.7413208,3.09026048 C11.8841639,4.40804053 11.5568238,6.34521174 9.44282857,8.52100085 C7.94856475,10.0585125 6.24481141,10.5280313 4.7202722,10.5280313 Z" id="Shape"></path>
                </g>
            </g>
        </g>
    </g>
</svg>